<svg width="26" height="26" viewBox="0 0 26 26" fill="none" xmlns="http://www.w3.org/2000/svg">
<g id="carbon:task-view">
<path id="Vector" d="M17.875 21.125C18.7725 21.125 19.5 20.3975 19.5 19.5C19.5 18.6025 18.7725 17.875 17.875 17.875C16.9775 17.875 16.25 18.6025 16.25 19.5C16.25 20.3975 16.9775 21.125 17.875 21.125Z" fill="white"/>
<path id="Vector_2" d="M24.1938 19.0767C23.6918 17.7977 22.8255 16.6942 21.7023 15.9029C20.5791 15.1116 19.2483 14.6672 17.875 14.625C16.5017 14.6672 15.1709 15.1116 14.0477 15.9029C12.9245 16.6942 12.0582 17.7977 11.5562 19.0767L11.375 19.5L11.5562 19.9233C12.0582 21.2023 12.9245 22.3058 14.0477 23.0971C15.1709 23.8884 16.5017 24.3328 17.875 24.375C19.2483 24.3328 20.5791 23.8884 21.7023 23.0971C22.8255 22.3058 23.6918 21.2023 24.1938 19.9233L24.375 19.5L24.1938 19.0767ZM17.875 22.75C17.2322 22.75 16.6039 22.5594 16.0694 22.2023C15.5349 21.8452 15.1184 21.3376 14.8724 20.7437C14.6264 20.1499 14.562 19.4964 14.6874 18.866C14.8128 18.2355 15.1224 17.6564 15.5769 17.2019C16.0314 16.7474 16.6105 16.4378 17.241 16.3124C17.8714 16.187 18.5249 16.2514 19.1187 16.4974C19.7126 16.7434 20.2202 17.1599 20.5773 17.6944C20.9344 18.2289 21.125 18.8572 21.125 19.5C21.1239 20.3616 20.7812 21.1876 20.1719 21.7969C19.5626 22.4062 18.7366 22.7489 17.875 22.75Z" fill="white"/>
<g id="Group 1000001205">
<path id="Vector_3" d="M9.75 22.75H5.6875V5.6875H8.125V8.125H17.875V5.6875H20.3125V13H21.9375V5.6875C21.9375 5.25652 21.7663 4.8432 21.4615 4.53845C21.1568 4.2337 20.7435 4.0625 20.3125 4.0625H17.875V3.25C17.875 2.81902 17.7038 2.4057 17.399 2.10095C17.0943 1.7962 16.681 1.625 16.25 1.625H9.75C9.31902 1.625 8.9057 1.7962 8.60095 2.10095C8.29621 2.4057 8.125 2.81902 8.125 3.25V4.0625H5.6875C5.25652 4.0625 4.8432 4.2337 4.53845 4.53845C4.2337 4.8432 4.0625 5.25652 4.0625 5.6875V22.75C4.0625 23.181 4.2337 23.5943 4.53845 23.899C4.8432 24.2038 5.25652 24.375 5.6875 24.375H9.75V22.75ZM9.75 3.25H16.25V6.5H9.75V3.25Z" fill="white"/>
</g>
</g>
</svg>
