<svg width="29" height="30" viewBox="0 0 29 30" fill="none" xmlns="http://www.w3.org/2000/svg">
<g id="material-symbols:work-update-outline">
<path id="Vector" d="M4.83342 26.25C4.16883 26.25 3.59971 26.005 3.12604 25.515C2.65237 25.025 2.41594 24.4367 2.41675 23.75V10C2.41675 9.3125 2.65358 8.72375 3.12725 8.23375C3.60092 7.74375 4.16964 7.49917 4.83342 7.5H9.66675V5C9.66675 4.3125 9.90358 3.72375 10.3773 3.23375C10.8509 2.74375 11.4196 2.49917 12.0834 2.5H16.9168C17.5813 2.5 18.1505 2.745 18.6241 3.235C19.0978 3.725 19.3342 4.31334 19.3334 5V7.5H24.1668C24.8313 7.5 25.4005 7.745 25.8741 8.235C26.3478 8.725 26.5842 9.31334 26.5834 10V15.3438C26.2209 15.0729 25.8383 14.8383 25.4355 14.64C25.0327 14.4417 24.6098 14.27 24.1668 14.125V10H4.83342V23.75H13.3824C13.4428 24.1875 13.5334 24.6146 13.6543 25.0313C13.7751 25.4479 13.9261 25.8542 14.1074 26.25H4.83342ZM12.0834 7.5H16.9168V5H12.0834V7.5ZM21.7501 28.75C20.0786 28.75 18.6535 28.1404 17.475 26.9213C16.2965 25.7021 15.7076 24.2283 15.7084 22.5C15.7084 20.7708 16.2977 19.2967 17.4762 18.0775C18.6547 16.8583 20.0794 16.2492 21.7501 16.25C23.4216 16.25 24.8466 16.8596 26.0252 18.0788C27.2037 19.2979 27.7926 20.7717 27.7918 22.5C27.7918 24.2292 27.2025 25.7033 26.024 26.9225C24.8454 28.1417 23.4208 28.7508 21.7501 28.75ZM21.7501 26.25L25.3751 22.5L24.5293 21.625L22.3543 23.875V18.75H21.1459V23.875L18.9709 21.625L18.1251 22.5L21.7501 26.25Z" fill="white"/>
</g>
</svg>
