<svg width="80" height="80" viewBox="0 0 80 80" fill="none" xmlns="http://www.w3.org/2000/svg">
<g id="icons8-delete-message 1">
<path id="Vector" d="M40 74C54.3594 74 66 62.3594 66 48C66 33.6406 54.3594 22 40 22C25.6406 22 14 33.6406 14 48C14 62.3594 25.6406 74 40 74Z" fill="url(#paint0_linear_1_3609)"/>
<path id="Vector_2" d="M48.8614 37.3666L50.6334 39.1386C51.1222 39.6273 51.1222 40.4219 50.6334 40.9106L32.9106 58.6334C32.4219 59.1222 31.6273 59.1222 31.1386 58.6334L29.3666 56.8614C28.8778 56.3727 28.8778 55.5781 29.3666 55.0894L47.0894 37.3666C47.5781 36.8778 48.3701 36.8778 48.8614 37.3666Z" fill="white"/>
<path id="Vector_3" d="M49.6168 56.8614L47.7642 58.6334C47.2532 59.1222 46.4226 59.1222 45.9116 58.6334L27.3832 40.9106C26.8723 40.4219 26.8723 39.6273 27.3832 39.1386L29.2358 37.3666C29.7468 36.8778 30.5774 36.8778 31.0884 37.3666L49.6168 55.0894C50.1277 55.5781 50.1277 56.3701 49.6168 56.8614Z" fill="white"/>
</g>
<defs>
<linearGradient id="paint0_linear_1_3609" x1="14" y1="48" x2="66" y2="48" gradientUnits="userSpaceOnUse">
<stop stop-color="#F44F5A"/>
<stop offset="0.443" stop-color="#EE3D4A"/>
<stop offset="1" stop-color="#E52030"/>
</linearGradient>
</defs>
</svg>
