<svg width="16" height="16" viewBox="0 0 16 16" fill="none" xmlns="http://www.w3.org/2000/svg">
<g id="Group 1000001147">
<path id="Vector" d="M8.02913 15.195C6.52649 15.195 5.05759 14.7494 3.80819 13.9146C2.55879 13.0797 1.585 11.8932 1.00997 10.5049C0.434932 9.11666 0.284477 7.58906 0.577628 6.11529C0.870778 4.64152 1.59437 3.28778 2.6569 2.22525C3.71942 1.16273 5.07316 0.439137 6.54693 0.145987C8.0207 -0.147164 9.5483 0.00329186 10.9366 0.578327C12.3248 1.15336 13.5114 2.12715 14.3462 3.37655C15.181 4.62595 15.6266 6.09485 15.6266 7.59749C15.6266 9.61246 14.8262 11.5449 13.4014 12.9697C11.9766 14.3945 10.0441 15.195 8.02913 15.195ZM8.02913 1.08536C6.74115 1.08536 5.4821 1.46729 4.41118 2.18285C3.34027 2.89841 2.50559 3.91547 2.0127 5.1054C1.51982 6.29534 1.39086 7.60471 1.64213 8.86794C1.8934 10.1312 2.51362 11.2915 3.42436 12.2023C4.33509 13.113 5.49544 13.7332 6.75867 13.9845C8.0219 14.2358 9.33127 14.1068 10.5212 13.6139C11.7111 13.121 12.7282 12.2863 13.4438 11.2154C14.1593 10.1445 14.5413 8.88546 14.5413 7.59749C14.5413 5.87036 13.8552 4.21398 12.6339 2.99272C11.4126 1.77146 9.75625 1.08536 8.02913 1.08536Z" fill="black"/>
<path id="Vector_2" d="M10.5199 10.8535L7.48633 7.81997V2.71338H8.57168V7.36955L11.2851 10.0884L10.5199 10.8535Z" fill="black"/>
</g>
</svg>
