<svg width="26" height="26" viewBox="0 0 26 26" fill="none" xmlns="http://www.w3.org/2000/svg">
<g id="mdi:task-auto">
<path id="Vector" d="M12.9998 23.8334C13.8665 23.8334 14.7332 23.725 15.4915 23.5084C15.0582 22.9667 14.6248 22.3167 14.4082 21.5584C13.9748 21.6667 13.4332 21.6667 12.9998 21.6667C8.23317 21.6667 4.33317 17.7667 4.33317 13C4.33317 8.23335 8.23317 4.33335 12.9998 4.33335C13.8665 4.33335 14.6248 4.44169 15.3832 4.65835L17.1165 2.92502C15.8165 2.49169 14.4082 2.16669 12.9998 2.16669C7.0415 2.16669 2.1665 7.04169 2.1665 13C2.1665 18.9584 7.0415 23.8334 12.9998 23.8334ZM7.0415 12.4584L8.55817 10.9417L11.9165 14.3L21.2332 4.98335L22.7498 6.50002L11.9165 17.3334L7.0415 12.4584ZM20.5832 15.1667L19.2182 18.1459L16.2498 19.5L19.2182 20.865L20.5832 23.8334L21.9373 20.865L24.9165 19.5L21.9373 18.1459L20.5832 15.1667Z" fill="white"/>
</g>
</svg>
