<svg width="24" height="24" viewBox="0 0 24 24" fill="none" xmlns="http://www.w3.org/2000/svg">
<g id="fluent:document-save-24-regular">
<path id="Vector" d="M18.5 20C18.5 20.1326 18.4473 20.2598 18.3536 20.3536C18.2598 20.4473 18.1326 20.5 18 20.5H13V21.5C13 21.671 12.983 21.838 12.95 22H18C18.5304 22 19.0391 21.7893 19.4142 21.4142C19.7893 21.0391 20 20.5304 20 20V9.828C19.9999 9.29761 19.7891 8.78899 19.414 8.414L13.585 2.586C13.5695 2.57163 13.5532 2.55827 13.536 2.546C13.5236 2.53645 13.5116 2.52644 13.5 2.516C13.4312 2.45107 13.358 2.39093 13.281 2.336C13.2554 2.31948 13.2287 2.30478 13.201 2.292L13.153 2.268L13.103 2.239C13.049 2.208 12.994 2.176 12.937 2.152C12.7379 2.07246 12.5271 2.02585 12.313 2.014C12.2932 2.01271 12.2735 2.01038 12.254 2.007C12.2269 2.00281 12.1995 2.00047 12.172 2H6C5.46957 2 4.96086 2.21071 4.58579 2.58579C4.21071 2.96086 4 3.46957 4 4V11H5.5V4C5.5 3.86739 5.55268 3.74021 5.64645 3.64645C5.74021 3.55268 5.86739 3.5 6 3.5H12V8C12 8.53043 12.2107 9.03914 12.5858 9.41421C12.9609 9.78929 13.4696 10 14 10H18.5V20ZM13.5 4.621L17.378 8.5H14C13.8674 8.5 13.7402 8.44732 13.6464 8.35355C13.5527 8.25979 13.5 8.13261 13.5 8V4.621ZM5 12H8V14H5V12ZM2.5 12H4V14.5C4 14.6326 4.05268 14.7598 4.14645 14.8536C4.24021 14.9473 4.36739 15 4.5 15H8.5C8.63261 15 8.75979 14.9473 8.85355 14.8536C8.94732 14.7598 9 14.6326 9 14.5V12H9.379C9.77669 12.0003 10.158 12.1586 10.439 12.44L11.561 13.56C11.7004 13.6995 11.8109 13.8651 11.8862 14.0473C11.9616 14.2295 12.0002 14.4248 12 14.622V21.5C12 21.8978 11.842 22.2794 11.5607 22.5607C11.2794 22.842 10.8978 23 10.5 23H10V17.5C10 17.3674 9.94732 17.2402 9.85355 17.1464C9.75979 17.0527 9.63261 17 9.5 17H3.5C3.36739 17 3.24021 17.0527 3.14645 17.1464C3.05268 17.2402 3 17.3674 3 17.5V23H2.5C2.10218 23 1.72064 22.842 1.43934 22.5607C1.15804 22.2794 1 21.8978 1 21.5V13.5C1 13.1022 1.15804 12.7206 1.43934 12.4393C1.72064 12.158 2.10218 12 2.5 12ZM9 18V23H4V18H9Z" fill="black"/>
</g>
</svg>
