<svg width="22" height="22" viewBox="0 0 22 22" fill="none" xmlns="http://www.w3.org/2000/svg">
<path id="Vector" d="M9.02077 0.0214844H15.0208V2.02148H9.02077V0.0214844ZM19.0398 6.41048L20.4738 4.97648L19.0598 3.56248L17.6268 4.99548C16.0567 3.7373 14.1099 3.04224 12.098 3.02157C10.086 3.00091 8.12537 3.65582 6.52977 4.88148L7.94977 6.32148C9.13616 5.47885 10.5546 5.02467 12.0098 5.02148L12.0198 5.02248V12.0025L16.9728 16.9605C15.995 17.9429 14.7475 18.6129 13.3886 18.8857C12.0296 19.1585 10.6203 19.0217 9.3391 18.4928C8.05792 17.9638 6.96259 17.0665 6.19187 15.9145C5.42115 14.7624 5.00974 13.4076 5.00977 12.0215H8.00977L4.00977 8.02148L0.00976562 12.0215H3.00977C3.0084 13.4596 3.35171 14.8772 4.01093 16.1554C4.67014 17.4335 5.62607 18.5351 6.79862 19.3679C7.97118 20.2006 9.32622 20.7402 10.7502 20.9414C12.1742 21.1427 13.6257 20.9998 14.9832 20.5247C16.3406 20.0495 17.5643 19.256 18.552 18.2106C19.5396 17.1652 20.2623 15.8983 20.6596 14.5161C21.0568 13.1339 21.1171 11.6766 20.8353 10.2663C20.5534 8.85605 19.9377 7.53385 19.0398 6.41048Z" fill="white"/>
</svg>
