<svg width="140" height="228" viewBox="0 0 140 228" fill="none" xmlns="http://www.w3.org/2000/svg">
<g id="ion:alert-outline">
<g id="Group 1000001339">
<path id="Vector" d="M70 35.625C67.6321 35.625 65.4664 38.9025 65.625 42.75L67.8125 138.938C67.8125 139.882 68.043 140.788 68.4532 141.457C68.8635 142.125 69.4199 142.5 70 142.5C70.5802 142.5 71.1366 142.125 71.5468 141.457C71.9571 140.788 72.1875 139.882 72.1875 138.938L74.375 42.75C74.5336 38.9025 72.368 35.625 70 35.625Z" stroke="black" stroke-width="32" stroke-linecap="round" stroke-linejoin="round"/>
</g>
<path id="Vector_2" d="M70 192.375C72.4162 192.375 74.375 189.185 74.375 185.25C74.375 181.315 72.4162 178.125 70 178.125C67.5838 178.125 65.625 181.315 65.625 185.25C65.625 189.185 67.5838 192.375 70 192.375Z" stroke="black" stroke-width="32" stroke-linecap="round" stroke-linejoin="round"/>
</g>
</svg>
