<svg width="24" height="24" viewBox="0 0 24 24" fill="none" xmlns="http://www.w3.org/2000/svg">
<g id="Frame">
<g id="Group">
<path id="Vector" d="M5 15.875C5 14.7478 5.44777 13.6668 6.2448 12.8698C7.04183 12.0728 8.12283 11.625 9.25 11.625H17.75C18.8772 11.625 19.9582 12.0728 20.7552 12.8698C21.5522 13.6668 22 14.7478 22 15.875C22 16.4386 21.7761 16.9791 21.3776 17.3776C20.9791 17.7761 20.4386 18 19.875 18H7.125C6.56141 18 6.02091 17.7761 5.6224 17.3776C5.22388 16.9791 5 16.4386 5 15.875Z" stroke="white" stroke-linejoin="round"/>
<path id="Vector_2" d="M13.5 7.375C15.2604 7.375 16.6875 5.94791 16.6875 4.1875C16.6875 2.42709 15.2604 1 13.5 1C11.7396 1 10.3125 2.42709 10.3125 4.1875C10.3125 5.94791 11.7396 7.375 13.5 7.375Z" stroke="white"/>
</g>
</g>
</svg>
